# AST/ASF file generated using VICON BodyLanguage
# -----------------------------------------------
:version 1.10
:name VICON
:units
  mass 1.0
  length 0.45
  angle deg
:documentation
   .ast/.asf automatically generated from VICON data using
   VICON BodyBuilder and BodyLanguage model FoxedUp or BRILLIANT.MOD
:root
   order TX TY TZ RX RY RZ
   axis XYZ
   position 0 0 0  
   orientation 0 0 0 
:bonedata
  begin
     id 1 
     name lhipjoint
     direction 0.604623 -0.733026 0.311616 
     length 2.56391 
     axis 0 0 0  XYZ
  end
  begin
     id 2 
     name lfemur
     direction 0.34202 -0.939693 0  
     length 7.75596  
     axis 0 0 20  XYZ
    dof rx ry rz
    limits (-160.0 20.0)
           (-70.0 70.0)
           (-60.0 70.0)
  end
  begin
     id 3 
     name ltibia
     direction 0.34202 -0.939693 0   
     length 7.63697   
     axis 0 0 20   XYZ
    dof rx
    limits (-10.0 170.0)
  end
  begin
     id 4 
     name lfoot
     direction 0.048038 -0.131983 0.990087   
     length 1.94388   
     axis -90 7.62852e-016 20   XYZ
    dof rx rz
    limits (-45.0 90.0)
           (-70.0 20.0)
  end
  begin
     id 5 
     name ltoes
     direction 1.53565e-011 -4.21929e-011 1   
     length 0.984801   
     axis -90 7.62852e-016 20   XYZ
    dof rx
    limits (-90.0 20.0)
  end
  begin
     id 6 
     name rhipjoint
     direction -0.609162 -0.729836 0.31026   
     length 2.57511  
     axis 0 0 0  XYZ 
  end
  begin
     id 7 
     name rfemur
     direction -0.34202 -0.939693 0   
     length 7.60772   
     axis 0 0 -20   XYZ
    dof rx ry rz
    limits (-160.0 20.0)
           (-70.0 70.0)
           (-70.0 60.0)
  end
  begin
     id 8 
     name rtibia
     direction -0.34202 -0.939693 0   
     length 7.68497   
     axis 0 0 -20   XYZ
    dof rx
    limits (-10.0 170.0)
 end
 begin
     id 9 
     name rfoot
     direction -0.0969806 -0.266452 0.958957   
     length 2.01398  
     axis -90 -7.62852e-016 -20   XYZ
    dof rx rz
    limits (-45.0 90.0)
           (-20.0 70.0)
  end
  begin
     id 10 
     name rtoes
     direction -1.53552e-011 -4.21869e-011 1   
     length 1.00896   
     axis -90 -7.62852e-016 -20   XYZ
    dof rx
    limits (-90.0 20.0)
  end
  begin
     id 11 
     name lowerback
     direction 0.0305179 0.993923 -0.10576   
     length 2.09077   
     axis 0 0 0   XYZ
    dof rx ry rz
    limits (-20.0 45.0)
           (-30.0 30.0)
           (-30.0 30.0)
  end
  begin
     id 12 
     name upperback
     direction -0.0137909 0.999867 0.00873764   
     length 2.08918   
     axis 0 0 0   XYZ
    dof rx ry rz
    limits (-20.0 45.0)
           (-30.0 30.0)
           (-30.0 30.0)
  end
  begin
     id 13 
     name thorax
     direction -0.0278536 0.997917 0.0581839   
     length 2.11939   
     axis 0 0 0   XYZ
    dof rx ry rz
    limits (-20.0 45.0)
           (-30.0 30.0)
           (-30.0 30.0)
  end
  begin
     id 14 
     name lowerneck
     direction 0.0138689 0.999837 -0.0116016   
     length 1.74353   
     axis 0 0 0   XYZ
    dof rx ry rz
    limits (-20.0 45.0)
           (-30.0 30.0)
           (-30.0 30.0)
  end
  begin
     id 15 
     name upperneck
     direction -0.00992078 0.999667 0.0238149   
     length 1.71734   
     axis 0 0 0   XYZ
    dof rx ry rz
    limits (-20.0 45.0)
           (-30.0 30.0)
           (-30.0 30.0)
  end
  begin
     id 16
     name head
     direction -0.00530555 0.999941 0.00944937  
     length 1.78249  
     axis 0 0 0   XYZ
    dof rx ry rz
    limits (-20.0 45.0)
           (-30.0 30.0)
           (-30.0 30.0)
  end
  begin
     id 17 
     name lclavicle
     direction 0.929165 0.366864 0.0454227  
     length 3.65686  
     axis 0 0 0   XYZ
    dof ry rz
    limits (-20.0 10.0)
           (0.0 20.0)
  end
  begin
     id 18 
     name lhumerus
     direction 1 -4.4897e-011 3.05413e-018   
     length 5.15218   
     axis -180 -30 -90   XYZ
    dof rx ry rz
    limits (-60.0 90.0)
           (-90.0 90.0)
           (-90.0 90.0)
  end
  begin
     id 19
     name lradius
     direction 1 -4.48963e-011 5.40022e-027   
     length 3.49459   
     axis -180 -30 -90   XYZ
    dof rx
    limits (-10.0 170.0)
  end
  begin
     id 20
     name lwrist
     direction 1 -4.48966e-011 9.79369e-027   
     length 1.7473   
     axis -4.67603e-015 90 90   XYZ
    dof ry
    limits (-180.0 0.0)
 end
  begin
     id 21 
     name lhand
     direction 1 -4.48996e-011 1.9593e-026   
     length 0.512466   
     axis -1.24987e-014 90 90   XYZ
    dof rx rz
    limits (-90.0 90.0)
           (-45.0 45.0)
  end
  begin
     id 22 
     name lfingers
     direction 1 -4.48931e-011 3.91616e-026   
     length 0.413163   
     axis -2.49979e-014 90 90   XYZ
    dof rx
    limits (0.0 90.0)
  end
  begin
     id 23
     name lthumb
     direction 0.707107 -6.34959e-011 0.707107   
     length 0.593222   
     axis -90 45 5.69224e-014   XYZ
    dof rx rz
    limits (-45.0 45.0)
           (-45.0 45.0)
  end
  begin
     id 24 
     name rclavicle
     direction -0.951469 0.307727 0.00346571   
     length 3.42864  
     axis 0 0 0   XYZ 
    dof ry rz
    limits (-10.0 20.0)
           (-20.0 0.0)
  end
  begin
     id 25 
     name rhumerus
     direction -1 -4.48967e-011 2.58643e-027  
     length 5.44344   
     axis -180 30 90   XYZ
    dof rx ry rz
    limits (-90.0 60.0)
           (-90.0 90.0)
           (-90.0 90.0)
  end
  begin
     id 26 
     name rradius
     direction -1 -4.48973e-011 4.26485e-028   
     length 3.58403   
     axis -180 30 90   XYZ
    dof rx
    limits (-10.0 170.0)
  end
  begin
     id 27 
     name rwrist
     direction -1 -4.48962e-011 9.79331e-027   
     length 1.79202   
     axis -4.67603e-015 -90 -90   XYZ
    dof ry
    limits (-180.0 0.0)
  end
  begin
     id 28
     name rhand
     direction -1 -4.48975e-011 1.95891e-026   
     length 0.34249   
     axis -1.24987e-014 -90 -90   XYZ
    dof rx rz
    limits (-90.0 90.0)
           (-45.0 45.0)
  end
  begin
     id 29
     name rfingers
     direction -1 -4.48893e-011 3.9147e-026   
     length 0.276124   
     axis -2.49979e-014 -90 -90   XYZ
    dof rx
    limits (0.0 90.0)
  end
  begin
     id 30
     name rthumb
     direction -0.707107 -6.34898e-011 0.707107   
     length 0.39646   
     axis -90 -45 -5.69224e-014   XYZ
    dof rx rz
    limits (-45.0 45.0)
           (-45.0 45.0)
  end
:hierarchy
  begin
    root lhipjoint rhipjoint lowerback
    lhipjoint lfemur
    lfemur ltibia
    ltibia lfoot
    lfoot ltoes
    rhipjoint rfemur
    rfemur rtibia
    rtibia rfoot
    rfoot rtoes
    lowerback upperback
    upperback thorax
    thorax lowerneck lclavicle rclavicle
    lowerneck upperneck
    upperneck head
    lclavicle lhumerus
    lhumerus lradius
    lradius lwrist
    lwrist lhand lthumb
    lhand lfingers
    rclavicle rhumerus
    rhumerus rradius
    rradius rwrist
    rwrist rhand rthumb
    rhand rfingers
  end

#!OML:ASF H:\charlestonDancing\Project 1\Capture day 1\Session 1\femaleDancer.ASF
:FULLY-SPECIFIED
:DEGREES
62
root -19.4255 17.6765 -6.5677 -259.653 82.8144 -274.852
lowerback 18.8265 -6.8309 2.03639
upperback 1.45973 -7.93462 4.33901
thorax -8.53449 -3.70449 5.594
lowerneck 2.09652 -2.41038 -0.405552
upperneck -8.84106 -2.84436 4.36132
head -3.13105 -1.53404 1.58341
rclavicle 1.145e-013 -3.02153e-014
rhumerus -12.7274 11.1117 -42.8293
rradius 80.3379
rwrist -19.2925
rhand -2.51704 -23.0136
rfingers 7.12502
rthumb 23.1774 -51.6391
lclavicle 1.145e-013 -3.02153e-014
lhumerus 14.7814 -32.5986 52.2892
lradius 79.5082
lwrist 35.0424
lhand -6.01792 24.2453
lfingers 7.12502
lthumb 19.8151 53.2552
rfemur -54.7808 -11.4394 23.4312
rtibia 57.7886
rfoot -11.9083 -9.51488
rtoes -9.30985
lfemur -9.78306 6.698 -31.054
ltibia 32.3471
lfoot -2.47731 -15.4441
ltoes -8.96727
63
root -19.3274 17.6871 -6.6637 -264.15 82.7917 -279.71
lowerback 18.1005 -6.78083 2.10263
upperback 1.20872 -7.9001 4.41999
thorax -8.41338 -3.70333 5.56261
lowerneck 2.1687 -2.49152 -0.184262
upperneck -8.50058 -2.95639 4.37034
head -3.02798 -1.59628 1.54525
rclavicle -1.48691e-013 5.1684e-014
rhumerus -10.9511 10.8405 -41.452
rradius 80.2245
rwrist -20.0801
rhand -2.66287 -23.6232
rfingers 7.12502
rthumb 23.0375 -52.2663
lclavicle -1.48691e-013 5.1684e-014
lhumerus 13.4642 -32.8379 52.102
lradius 80.603
lwrist 35.2552
lhand -6.10584 24.1595
lfingers 7.12502
lthumb 19.7306 53.1781
rfemur -55.2803 -12.7594 26.5278
rtibia 55.2247
rfoot -12.0518 -9.25813
rtoes -14.1371
lfemur -9.18312 7.37419 -31.5094
ltibia 30.9763
lfoot -2.34189 -15.0033
ltoes -9.68643
64
root -19.2216 17.6933 -6.75481 -267.932 82.5931 -283.723
lowerback 17.4917 -6.72989 2.02768
upperback 1.09232 -7.89198 4.42552
thorax -8.19647 -3.71158 5.53486
lowerneck 1.79497 -2.57542 0.178276
upperneck -8.10701 -3.07066 4.36631
head -2.82638 -1.65616 1.46726
rclavicle -2.70347e-014 3.18055e-015
rhumerus -9.14857 10.3781 -40.2953
rradius 80.1103
rwrist -20.861
rhand -2.8104 -25.0837
rfingers 7.12502
rthumb 22.8959 -53.7444
lclavicle -2.70347e-014 3.18055e-015
lhumerus 12.6523 -32.9342 51.6747
lradius 81.6291
lwrist 35.3589
lhand -5.96318 23.9282
lfingers 7.12502
lthumb 19.8677 52.9327
rfemur -55.6321 -14.0173 29.2623
rtibia 52.5064
rfoot -12.2837 -8.33291
rtoes -11.6561
lfemur -8.35703 8.06819 -32.1153
ltibia 29.5302
lfoot -2.48022 -14.5234
ltoes -10.9774
65
root -19.1113 17.6882 -6.8383 -270.753 82.258 -286.67
lowerback 17.0472 -6.66013 1.73688
upperback 0.912954 -7.89401 4.40343
thorax -8.11096 -3.71384 5.6266
lowerneck 1.7851 -2.70913 0.467319
upperneck -7.96874 -3.23731 4.43643
head -2.77737 -1.74837 1.44131
rclavicle -6.2816e-014 3.33958e-014
rhumerus -7.62186 10.0534 -39.3151
rradius 79.9614
rwrist -21.6261
rhand -3.5804 -26.4034
rfingers 7.12502
rthumb 22.1568 -55.1537
lclavicle -6.2816e-014 3.33958e-014
lhumerus 12.0473 -33.1358 51.245
lradius 82.5036
lwrist 35.331
lhand -5.91064 23.6721
lfingers 7.12502
lthumb 19.9183 52.6713
rfemur -56.0218 -15.3741 31.8735
rtibia 49.9225
rfoot -11.4762 -9.02991
rtoes -8.40422
lfemur -7.33824 8.71612 -32.8233
ltibia 27.9984
lfoot -2.66865 -14.1695
ltoes -11.3705
66
root -18.9981 17.6514 -6.91527 -272.621 81.9382 -288.514
lowerback 16.7494 -6.60627 1.36842
upperback 0.69785 -7.91977 4.39099
thorax -8.13042 -3.72001 5.8005
lowerneck 2.19805 -2.8671 0.688796
upperneck -8.07638 -3.41702 4.57037
head -2.88866 -1.85508 1.46365
rclavicle -7.95139e-016 -1.11319e-014
rhumerus -6.36585 9.89466 -38.4677
rradius 79.7734
rwrist -22.4737
rhand -4.8902 -27.028
rfingers 7.12502
rthumb 20.8989 -55.9222
lclavicle -7.95139e-016 -1.11319e-014
lhumerus 11.5522 -33.3904 50.9019
lradius 83.1871
lwrist 35.2923
lhand -5.60701 23.54
lfingers 7.12502
lthumb 20.2101 52.5086
rfemur -56.4699 -17.0076 34.6791
rtibia 47.6935
rfoot -9.97335 -10.0407
rtoes -9.34488
lfemur -6.0575 9.14007 -33.469
ltibia 26.397
lfoot -2.82786 -13.9222
ltoes -9.64661
67
root -18.882 17.5899 -6.98576 -273.562 81.4948 -289.352
lowerback 16.5142 -6.6428 0.908484
upperback 0.600163 -8.08294 4.31079
thorax -8.04132 -3.79255 5.97754
lowerneck 1.9817 -2.97808 0.86732
upperneck -7.89839 -3.55492 4.7438
head -2.78558 -1.92911 1.48383
rclavicle 3.97569e-014 -3.97569e-014
rhumerus -4.99548 9.68219 -37.8781
rradius 79.6256
rwrist -23.3151
rhand -5.98661 -27.4593
rfingers 7.12502
rthumb 19.8452 -56.4661
lclavicle 3.97569e-014 -3.97569e-014
lhumerus 11.3093 -33.3298 50.3959
lradius 83.7379
lwrist 35.371
lhand -5.20144 23.4633
lfingers 7.12502
lthumb 20.5999 52.3902
rfemur -56.8995 -18.2757 36.9912
rtibia 45.9455
rfoot -8.00162 -13.489
rtoes -10.6586
lfemur -4.61269 9.38671 -34.2307
ltibia 24.7492
lfoot -3.11663 -13.7424
ltoes -7.84049
68
root -18.7593 17.5167 -7.05247 -273.409 80.9556 -289.107
lowerback 16.3088 -6.66727 0.305843
upperback 0.420941 -8.25181 4.26294
thorax -8.02934 -3.85966 6.27978
lowerneck 1.55969 -3.14939 1.08309
upperneck -7.51126 -3.80481 4.71309
head -2.57621 -2.04804 1.42395
rclavicle -6.75868e-014 4.77083e-014
rhumerus -3.99059 9.49356 -37.3425
rradius 79.7276
rwrist -24.1367
rhand -7.2845 -27.9035
rfingers 7.12502
rthumb 18.5972 -57.0345
lclavicle -6.75868e-014 4.77083e-014
lhumerus 11.0575 -33.3322 50.1125
lradius 84.2805
lwrist 35.4412
lhand -5.35323 23.4506
lfingers 7.12502
lthumb 20.454 52.3933
rfemur -57.423 -19.3349 38.8002
rtibia 44.8501
rfoot -6.70377 -17.3074
rtoes -5.96515
lfemur -3.26455 9.54554 -35.0986
ltibia 23.3038
lfoot -3.50994 -13.7269
ltoes -6.86967
69
root -18.6247 17.4473 -7.11687 -272.118 80.5434 -287.709
lowerback 16.0755 -6.75515 -0.117962
upperback 0.224371 -8.465 4.24804
thorax -8.03432 -3.95195 6.52577
lowerneck 1.09135 -3.3722 1.33247
upperneck -7.18877 -4.12759 4.61385
head -2.38316 -2.20229 1.33771
rclavicle -5.56597e-015 -2.22639e-014
rhumerus -3.41143 9.23903 -36.9312
rradius 80.1259
rwrist -24.6906
rhand -8.86045 -28.3254
rfingers 7.12502
rthumb 17.0808 -57.5945
lclavicle -5.56597e-015 -2.22639e-014
lhumerus 10.8687 -33.3365 49.9326
lradius 84.7594
lwrist 35.4708
lhand -5.49983 23.54
lfingers 7.12502
lthumb 20.3131 52.4977
rfemur -57.7978 -20.1805 40.2004
rtibia 44.388
rfoot -7.42125 -20.6215
rtoes 7.71039
lfemur -1.97166 9.48988 -35.8015
ltibia 22.0785
lfoot -3.63169 -13.8303
ltoes -4.42083
70
root -18.4754 17.3396 -7.18425 -270.31 80.1587 -285.719
lowerback 15.7981 -6.94493 -0.383264
upperback 0.0432852 -8.78121 4.23835
thorax -8.00709 -4.10033 6.70175
lowerneck 0.948427 -3.59578 1.38786
upperneck -7.23179 -4.42925 4.59871
head -2.36732 -2.35303 1.32721
rclavicle -2.38542e-014 -1.59028e-014
rhumerus -3.00981 8.99553 -36.6454
rradius 80.7262
rwrist -24.6733
rhand -9.26316 -28.0876
rfingers 7.12502
rthumb 16.6931 -57.3898
lclavicle -2.38542e-014 -1.59028e-014
lhumerus 10.665 -33.1951 49.8434
lradius 85.089
lwrist 35.4931
lhand -5.37749 23.4655
lfingers 7.12502
lthumb 20.4307 52.4106
rfemur -57.9829 -20.6095 40.8695
rtibia 44.5832
rfoot -9.71444 -23.6671
rtoes 10.13
lfemur -0.706224 9.25812 -36.4411
ltibia 21.2964
lfoot -3.54385 -14.1332
ltoes -0.520826
71
root -18.3061 17.2239 -7.2608 -268.826 79.8704 -284.011
lowerback 15.3684 -7.20118 -0.266665
upperback -0.0670687 -9.11813 4.20242
thorax -7.87774 -4.27768 6.61262
lowerneck 0.968931 -3.8321 1.29597
upperneck -7.51124 -4.73677 4.61646
head -2.45567 -2.50947 1.36243
rclavicle 3.73715e-014 -2.70347e-014
rhumerus -2.69687 8.71022 -36.545
rradius 81.4795
rwrist -24.1888
rhand -9.12136 -27.5888
rfingers 7.12502
rthumb 16.8296 -56.8795
lclavicle 3.73715e-014 -2.70347e-014
lhumerus 10.4935 -32.9566 49.7888
lradius 85.3236
lwrist 35.4176
lhand -5.14863 23.3002
lfingers 7.12502
lthumb 20.6506 52.2216
rfemur -57.8754 -20.7447 40.9964
rtibia 45.0999
rfoot -11.2795 -26.1157
rtoes 8.91798
lfemur 0.329926 9.04412 -36.9209
ltibia 21.2419
lfoot -3.33513 -14.7427
ltoes 3.10109
72
root -18.1151 17.1189 -7.34611 -268.309 80.0927 -283.431
lowerback 14.5636 -7.44953 0.659736
upperback -0.116046 -9.30548 4.23498
thorax -7.60859 -4.41538 6.06478
lowerneck 0.757246 -4.04375 1.15896
upperneck -7.64149 -5.02271 4.66376
head -2.4504 -2.64926 1.40396
rclavicle 1.11319e-014 -4.45278e-014
rhumerus -2.55119 8.27035 -36.5922
rradius 82.309
rwrist -23.3494
rhand -9.62308 -27.7056
rfingers 7.12502
rthumb 16.3466 -57.0367
lclavicle 1.11319e-014 -4.45278e-014
lhumerus 10.4668 -32.6958 49.7786
lradius 85.4786
lwrist 35.1374
lhand -4.78104 23.2059
lfingers 7.12502
lthumb 21.0038 52.0885
rfemur -57.3063 -19.9158 40.3333
rtibia 45.9598
rfoot -15.0846 -27.5556
rtoes 14.2536
lfemur 0.882547 8.96425 -36.8039
ltibia 21.9009
lfoot -2.92091 -15.5647
ltoes 5.91501
73
root -17.9 17.0233 -7.43772 -269.267 81.0911 -284.415
lowerback 13.9336 -7.64155 2.37286
upperback -0.378865 -9.24897 4.62849
thorax -7.75694 -4.4343 5.48922
lowerneck 0.466368 -4.20545 0.95328
upperneck -7.4332 -5.28414 4.37581
head -2.32471 -2.76135 1.33771
rclavicle -7.15625e-015 4.13472e-014
rhumerus -2.58343 8.12768 -36.3295
rradius 83.1779
rwrist -22.507
rhand -10.159 -27.9415
rfingers 7.12502
rthumb 15.8305 -57.3143
lclavicle -7.15625e-015 4.13472e-014
lhumerus 10.0108 -32.4835 50.4788
lradius 85.5284
lwrist 34.7717
lhand -4.1036 23.2875
lfingers 7.12502
lthumb 21.6545 52.0965
rfemur -56.3122 -18.3822 39.476
rtibia 47.1086
rfoot -17.4809 -28.0286
rtoes 15.2966
lfemur 1.2474 9.22814 -35.7666
ltibia 22.8428
lfoot -1.6108 -16.3875
ltoes 9.76194
74
root -17.6616 16.9183 -7.54446 -272.377 80.8175 -287.668
lowerback 13.7308 -7.60824 2.70852
upperback -1.10538 -9.11057 5.00688
thorax -8.43293 -4.35542 5.73975
lowerneck 0.368418 -4.36915 0.867566
upperneck -7.0007 -5.60578 3.19946
head -2.18744 -2.88712 0.972361
rclavicle 8.18993e-014 -3.02153e-014
rhumerus -2.58027 8.65433 -35.5498
rradius 83.9707
rwrist -22.0842
rhand -10.2529 -28.1516
rfingers 7.12502
rthumb 15.7401 -57.5315
lclavicle 8.18993e-014 -3.02153e-014
lhumerus 8.58912 -32.2619 52.4105
lradius 85.4698
lwrist 34.329
lhand -3.13635 23.4605
lfingers 7.12502
lthumb 22.5831 52.1596
rfemur -55.8145 -17.2974 37.7264
rtibia 48.6726
rfoot -19.0553 -27.9819
rtoes 13.6565
lfemur 1.12634 10.0282 -36.0338
ltibia 24.5725
lfoot 0.699112 -17.0456
ltoes 14.1416
75
root -17.3979 16.8585 -7.65671 -276.453 80.2506 -291.627
lowerback 13.1028 -7.65205 3.13602
upperback -1.43357 -9.12861 5.04992
thorax -8.49704 -4.38511 5.5013
lowerneck -0.107591 -4.34822 0.513124
upperneck -6.28031 -5.63385 2.87207
head -1.86622 -2.87668 0.898522
rclavicle -3.10104e-014 -4.77083e-015
rhumerus -2.17133 8.94173 -35.447
rradius 84.3947
rwrist -21.8749
rhand -10.2976 -28.3472
rfingers 7.12502
rthumb 15.697 -57.7305
lclavicle -3.10104e-014 -4.77083e-015
lhumerus 7.36096 -31.7811 53.9352
lradius 85.3004
lwrist 33.8851
lhand -3.07865 23.3741
lfingers 7.12502
lthumb 22.6385 52.0664
rfemur -55.878 -17.8481 37.0688
rtibia 50.4069
rfoot -20.9981 -27.459
rtoes 14.3764
lfemur 0.94262 11.9523 -36.2317
ltibia 27.0794
lfoot 3.49898 -18.0361
ltoes 14.3943
76
root -17.1307 16.787 -7.75809 -281.927 79.3844 -296.756
lowerback 12.6549 -7.62032 3.14817
upperback -1.64137 -9.11397 5.04667
thorax -8.47308 -4.38469 5.44155
lowerneck -0.309436 -4.29997 0.339823
upperneck -5.86306 -5.61074 2.39716
head -1.70474 -2.84866 0.764442
rclavicle 5.48646e-014 2.06736e-014
rhumerus -1.57411 9.28132 -35.6309
rradius 84.5317
rwrist -21.7903
rhand -10.5878 -28.5139
rfingers 7.12502
rthumb 15.4175 -57.9189
lclavicle 5.48646e-014 2.06736e-014
lhumerus 6.10195 -31.2221 55.4302
lradius 85.0828
lwrist 33.702
lhand -3.73626 23.1875
lfingers 7.12502
lthumb 22.0072 51.9555
rfemur -55.6347 -18.4453 36.1974
rtibia 52.0362
rfoot -22.0256 -26.5917
rtoes 13.5395
lfemur 0.418499 13.5659 -36.3401
ltibia 30.5353
lfoot 11.0891 -15.9677
ltoes 23.5725
